<svg width="446" height="446" viewBox="0 0 446 446" fill="none" xmlns="http://www.w3.org/2000/svg">
<path d="M167.778 346.052C157.212 363.22 136.285 389.023 101.34 397.251L109.365 370.838C109.365 370.838 78.3809 391.461 48.6163 397.251C54.4069 367.385 75.0294 336.502 75.0294 336.502L48.6163 344.528C56.8442 309.582 82.6476 288.655 99.8159 278.09L172.968 262.729L167.778 346.052Z" fill="#F2C94C"/>
<path d="M283.351 416.3C245.182 454.469 184.069 455.678 144.453 419.943C160.091 418.286 176.95 405.847 179.308 383.958C180.291 374.866 178.762 364.138 173.603 351.873L93.993 272.263C81.728 267.104 70.9992 265.575 61.9075 266.557C40.0185 268.916 27.5796 285.773 25.9226 301.412C-9.8119 261.797 -8.60454 200.684 29.5655 162.513C52.1365 139.942 82.7492 130.3 112.189 133.589C125.687 135.099 138.935 139.314 151.052 146.265L299.599 294.812C306.551 306.929 310.773 320.183 312.275 333.675C315.566 363.115 305.921 393.729 283.351 416.3Z" fill="#EB5757"/>
<path d="M312.276 333.677C272.737 360.083 227.52 376.736 179.308 383.957C180.291 374.866 178.762 364.137 173.603 351.872L93.9928 272.262C81.7278 267.103 70.9991 265.574 61.9073 266.557C69.1289 218.345 85.7822 173.127 112.188 133.589C125.686 135.099 138.934 139.314 151.051 146.265L299.598 294.812C306.551 306.931 310.773 320.184 312.276 333.677Z" fill="#C40606"/>
<path d="M173.6 351.874C235.565 337.643 294.413 306.401 342.686 258.129C413.583 187.231 447.759 93.5244 445.236 0.630137C352.341 -1.89331 258.635 32.2815 187.737 103.179C139.464 151.452 108.223 210.3 93.9913 272.265L173.6 351.874Z" fill="#E3E8EC"/>
<path d="M228.003 143.445C179.733 191.715 141.313 243.396 114.682 292.951L93.9938 272.263C108.218 210.302 139.468 151.452 187.738 103.182C258.634 32.2833 352.341 -1.88976 445.236 0.635428C377.134 22.9037 298.9 72.5488 228.003 143.445Z" fill="#D5D8DB"/>
<path d="M424.516 129.535C403.758 117.065 383.173 101.067 363.987 81.8832C354.723 72.6192 346.209 63.0386 338.475 53.2737C330.18 42.7945 322.772 32.098 316.309 21.3553C357.64 6.41727 401.221 -0.489372 444.626 0.616212C444.832 0.629259 445.038 0.629259 445.237 0.635348L445.231 0.641437C446.412 44.2402 439.518 88.0121 424.516 129.535Z" fill="#EB5757"/>
<path d="M431.623 299.703C431.617 299.697 431.623 299.69 431.617 299.683L431.623 299.703Z" fill="#EB5757"/>
<path d="M445.236 0.635348L445.23 0.641437C411.429 11.686 375.129 29.4823 338.476 53.2737C330.181 42.7945 322.773 32.098 316.31 21.3553C357.64 6.41727 401.221 -0.489372 444.626 0.616212C444.832 0.629259 445.037 0.629259 445.236 0.635348Z" fill="#C40606"/>
<path d="M289.535 221.799C325.691 221.799 355 192.489 355 156.334C355 120.179 325.691 90.8688 289.535 90.8688C253.38 90.8688 224.07 120.179 224.07 156.334C224.07 192.489 253.38 221.799 289.535 221.799Z" fill="#EB5757"/>
<path d="M289.535 200.419C313.883 200.419 333.62 180.681 333.62 156.334C333.62 131.986 313.883 112.249 289.535 112.249C265.188 112.249 245.45 131.986 245.45 156.334C245.45 180.681 265.188 200.419 289.535 200.419Z" fill="#A0D9F2"/>
</svg>
