<svg width="257" height="40" viewBox="0 0 257 40" fill="none" xmlns="http://www.w3.org/2000/svg">
<g clip-path="url(#clip0_614_871)">
<path d="M46.2847 31.7343V17.2647H43.7155V14.0651H46.3189C46.7471 10.19 49.5733 7.91467 54.4034 7.91467H56.082V10.7588H53.8211C51.1148 10.7588 49.7103 11.5054 49.9159 14.0651H56.082V17.2647H49.9929V31.7343H46.2847Z" fill="white"/>
<path d="M58.1459 31.7343V14.0651H61.5373V18.829H61.7771C62.291 15.9849 64.1408 13.7096 67.6349 13.7096C71.4888 13.7096 73.2016 16.5893 73.2016 19.9311V22.2242H69.5362V20.6599C69.5362 18.1358 68.5085 16.9626 65.9735 16.9626C63.0617 16.9626 61.8628 18.6335 61.8628 21.7976V31.7343H58.1459Z" fill="white"/>
<path d="M74.7603 22.9175C74.7603 17.407 78.5628 13.7096 84.2151 13.7096C89.8674 13.7096 93.7041 17.407 93.7041 22.9175C93.7041 28.3569 89.9016 32.0898 84.2151 32.0898C78.5285 32.0898 74.7603 28.3569 74.7603 22.9175ZM90.0729 22.9175C90.0729 19.149 88.3601 17.087 84.2151 17.087C80.07 17.087 78.4001 19.149 78.4001 22.9175C78.4001 26.6859 80.1129 28.6946 84.2236 28.6946C88.3344 28.6946 90.0729 26.6682 90.0729 22.9175Z" fill="white"/>
<path d="M96.3846 31.7343V14.0651H99.776V19.3979H99.9858C100.414 16.4471 102.281 13.7096 106.529 13.7096C110.383 13.7096 112.489 16.1627 112.952 19.5401H113.157C113.586 16.5182 115.521 13.7096 119.837 13.7096C124.256 13.7096 126.483 16.8204 126.483 21.1043V31.7343H122.818V22.1353C122.818 18.6513 121.482 17.1581 118.193 17.1581C114.562 17.1581 113.26 19.0779 113.26 22.9886V31.7343H109.595V22.1353C109.595 18.6513 108.31 17.1581 105 17.1581C101.339 17.1581 100.071 19.0779 100.071 22.9886V31.7343H96.3846Z" fill="white"/>
<path d="M129.258 25.7793V25.6727H132.958V25.9571C132.958 28.268 134.294 29.0145 137.856 29.0145C141.179 29.0145 142.173 28.3035 142.173 26.7392C142.173 25.2816 141.35 24.8195 138.918 24.4639L134.259 23.824C131.039 23.3796 129.087 21.9753 129.087 19.0245C129.087 15.9138 131.793 13.7274 137.034 13.7274C142.275 13.7274 145.397 15.896 145.397 20.0911V20.1977H141.727V19.9844C141.727 17.8869 140.7 16.7848 136.931 16.7848C133.814 16.7848 132.718 17.4958 132.718 19.1667C132.718 20.5533 133.403 21.051 135.972 21.3887L139.912 21.9575C143.954 22.4908 145.808 23.9129 145.808 26.8459C145.808 30.1522 142.652 32.1075 137.856 32.1075C132.375 32.0898 129.258 29.85 129.258 25.7793Z" fill="white"/>
<path d="M147.791 22.9175C147.791 17.407 151.456 13.7096 157.074 13.7096C162.183 13.7096 165.917 16.6959 165.917 21.1043V21.4598H162.251V21.2465C162.251 18.5091 160.328 17.1581 157.01 17.1581C153.156 17.1581 151.443 19.0423 151.443 22.9352C151.443 26.7393 153.156 28.6591 157.01 28.6591C160.328 28.6591 162.251 27.3259 162.251 24.5706V24.3218H165.917V24.7128C165.917 29.1212 162.183 32.1075 157.074 32.1075C151.456 32.0898 147.791 28.3569 147.791 22.9175Z" fill="white"/>
<path d="M168.653 31.7343V14.0651H172.044V18.829H172.284C172.798 15.9849 174.648 13.7096 178.142 13.7096C181.996 13.7096 183.708 16.5893 183.708 19.9311V22.2242H180.043V20.6599C180.043 18.1358 179.015 16.9626 176.48 16.9626C173.569 16.9626 172.37 18.6335 172.37 21.7976V31.7343H168.653Z" fill="white"/>
<path d="M185.267 27.4681C185.267 24.7306 187.408 23.3085 190.748 22.9175L198.49 22.0642V21.0332C198.49 18.118 197.257 17.087 194.003 17.087C190.851 17.087 189.292 18.1535 189.292 20.7488V20.891H185.627V20.7488C185.627 16.7493 188.847 13.7096 194.259 13.7096C199.672 13.7096 202.104 16.767 202.104 20.9977V31.7343H198.726V27.3259H198.486C197.595 30.3122 194.889 32.0898 191.018 32.0898C187.494 32.0898 185.267 30.3833 185.267 27.4681ZM192.016 29.3345C195.87 29.3345 198.49 27.8414 198.49 24.3573L191.81 25.1394C189.892 25.3883 188.967 25.8505 188.967 27.237C188.967 28.6235 189.892 29.3345 192.016 29.3345Z" fill="white"/>
<path d="M212.672 31.7342C209.007 31.7342 206.746 30.0633 206.746 25.7616V17.2647H203.864V14.0651H206.742V10.19H210.407V14.0651H216.573V17.2647H210.407V25.5483C210.407 27.7169 211.366 28.2857 213.49 28.2857H216.573V31.7342H212.672Z" fill="white"/>
<path d="M218.222 22.9175C218.222 17.407 221.887 13.7096 227.505 13.7096C232.609 13.7096 236.343 16.6959 236.343 21.1043V21.4598H232.678V21.2465C232.678 18.5091 230.76 17.1581 227.437 17.1581C223.583 17.1581 221.87 19.0423 221.87 22.9352C221.87 26.7393 223.583 28.6591 227.437 28.6591C230.76 28.6591 232.678 27.3259 232.678 24.5706V24.3218H236.343V24.7128C236.343 29.1212 232.609 32.1075 227.505 32.1075C221.887 32.0898 218.222 28.3569 218.222 22.9175Z" fill="white"/>
<path d="M239.084 31.7343V7.91467H242.784V19.4689H242.989C243.572 16.4826 245.661 13.6918 250.012 13.6918C254.722 13.6918 257 16.8915 257 21.1932V31.7343H253.335V22.1353C253.335 18.5802 251.793 17.1581 248.265 17.1581C244.222 17.1581 242.784 19.4334 242.784 23.1663V31.7343H239.084Z" fill="white"/>
<path d="M34.903 27.0545V12.9494C34.903 11.9141 34.6403 10.897 34.1411 10.0006C33.642 9.10426 32.9241 8.36017 32.0597 7.84329L20.2926 0.790731C19.4288 0.273151 18.4489 0.000671387 17.4515 0.000671387C16.454 0.000671387 15.4742 0.273151 14.6103 0.790731L2.83899 7.84329C1.97571 8.36107 1.25891 9.10548 0.760584 10.0018C0.262254 10.898 -5.49235e-05 11.9146 8.62603e-09 12.9494V27.0545C-5.49235e-05 28.0893 0.262254 29.1058 0.760584 30.0021C1.25891 30.8984 1.97571 31.6428 2.83899 32.1606L14.5975 39.2131C15.4613 39.7307 16.4412 40.0032 17.4386 40.0032C18.4361 40.0032 19.416 39.7307 20.2798 39.2131L32.0469 32.1606C32.9136 31.6454 33.6341 30.9021 34.1356 30.0055C34.637 29.109 34.9017 28.0911 34.903 27.0545Z" fill="white"/>
<path d="M24.8144 9.28784H10.0714V12.8563H24.8144V9.28784Z" fill="#4083FF"/>
<path d="M24.8231 26.8681H10.08V30.4366H24.8231V26.8681Z" fill="#4083FF"/>
<path d="M28.8723 20.2979L6.64886 15.9817L6.01635 19.4893L28.2398 23.8055L28.8723 20.2979Z" fill="#4083FF"/>
</g>
<defs>
<clipPath id="clip0_614_871">
<rect width="257" height="40" fill="white"/>
</clipPath>
</defs>
</svg>
